<svg version="1" xmlns="http://www.w3.org/2000/svg" width="132.667" height="170" viewBox="0 0 132.667 170"><circle fill="none" stroke="#C92027" stroke-width="5" stroke-miterlimit="10" cx="67.667" cy="60.253" r="57.201"/><path fill="#C92027" d="M67.084 8.255c-28.717.32-51.736 23.86-51.415 52.58.32 28.717 23.86 51.736 52.578 51.415 28.718-.32 51.738-23.862 51.417-52.58-.32-28.717-23.863-51.736-52.58-51.415zm-11.75 35.07c-.12 2.08-1.03 3.948-2.434 5.304-.012.01-.02.034-.035.035-5.748 6-2.168 13.946-2.147 15.857l.334 29.88h-.012c0 .024.012.035.013.067.02 1.71-1.364 3.122-3.084 3.142-1.726.02-3.14-1.352-3.16-3.073 0-.033.012-.044.012-.068 0 0-.314-28.113-.347-29.936-.018-1.643 4.02-8.632-2.082-15.373-1.85-1.446-3.04-3.69-3.068-6.22-.003-.235.037-.85.037-.85l1.85-16.396 1.678-.02-.4 19.367 2.16-.024-.215-19.347 1.777-.02L46.43 45l1.833-.02-.217-19.348 1.61-.018.214 19.224 2.205-.025-.764-19.217 1.847-.02L55.34 42.81s.006.37-.005.514zM68.9 94.312c.02 1.69-1.342 3.08-3.027 3.1-1.69.03-3.092-1.33-3.1-3.03-.002-.022.01-.033.01-.056h-.02s-.343-18.47-.362-20.27c.482-.912 3.132-8.034-3.374-9.738-.396-35.35 7.994-40.21 7.994-40.21l1.04-.013s.563 45.38.572 47.273c.035 2.067.27 22.877.27 22.877l-.013.022c.01.01.01.033.01.043zM101.844 62.9c-1.167.096-4.92.64-7.65 2.757-3.314 2.46-3.277 5.715-3.23 9.806l.024 2.255c.1 8.933.21 18.785-16.813 19.895l-.047-4.26c10.26-.95 10.18-8.212 10.113-14.058l-.023-2.17c-.068-6.18-.164-14.694 10.923-16.32-11.036-1.213-11.21-9.395-11.284-15.99l-.03-2.588c-.062-5.596-.224-12.69-10.42-13.413l-.048-4.258c16.21.82 17.138 9.244 17.246 18.93l.032 2.84c.06 5.343.125 11.187 11.16 12.315l.048 4.26z"/><g fill="#CB0C0C"><path d="M29.868 156.697h2.79v5.6l4.358-5.636h3.26l-4.772 5.834 5.186 7.185h-3.475l-4.556-6.627v6.626h-2.792v-12.983zM41.748 156.625h2.79v13.054h-2.79v-13.055zM49.794 158.82h-3.87v-2.16h10.55v2.16h-3.87v10.858h-2.81V158.82zM65.24 160.91c-.054-.45-.216-2.287-2.106-2.287-2.07 0-2.936 2.16-2.936 4.844 0 .774 0 4.466 2.72 4.466 1.17 0 2.286-.738 2.34-2.467h2.935c-.054.773-.125 1.98-1.17 3.06-1.152 1.19-2.61 1.46-3.8 1.46-4.482 0-5.94-3.314-5.94-6.536 0-4.124 2.305-6.86 5.96-6.86 2.845 0 4.843 1.73 4.843 4.32H65.24zM69.882 156.66h2.79v5.204h4.916v-5.203h2.827v13.02h-2.79v-5.71h-4.952v5.71h-2.79v-13.02zM83.003 156.66h8.715v2.125h-5.924v3.098h5.545v2.124h-5.546v3.51h6.12v2.162h-8.91v-13.02zM93.964 156.66h4.033l4.88 10.246V156.66h2.593v13.02h-3.834l-5.043-10.805v10.804h-2.63v-13.02z"/><g><path d="M14.97 136.454c-.258-2.088-1.715-2.86-3.345-2.86-3.458 0-4.516 3.173-4.516 6.946 0 1.258.028 6.46 4.457 6.46 3.03 0 3.344-2.202 3.458-3h5.945c-.03 6.458-6.602 7-9.29 7-2 0-5.543-.343-7.83-2.743-2.258-2.4-2.658-5.688-2.658-7.832 0-2.828.658-5.658 2.6-7.86 2.116-2.4 4.83-3.028 7.832-3.028 3.344 0 5.888.8 7.517 2.516 1.66 1.77 1.687 3.63 1.716 4.402H14.97zM26.548 132.25c2.6-2.628 6.545-2.856 8.06-2.856 8.23 0 10.46 5.916 10.46 10.947 0 8.23-5.83 10.747-10.746 10.747-5.487 0-10.603-3.03-10.603-10.72 0-1.37.228-5.485 2.828-8.116zm7.83 14.634c4.088 0 4.774-3.77 4.774-6.63 0-2.886-.686-4.315-1.314-5.23-.83-1.142-2.172-1.485-3.43-1.485-3.772 0-4.8 3.257-4.8 6.802-.002 3.284.97 6.542 4.77 6.542zM49.445 129.966h8.716c2.46 0 5.718.258 7.86 1.715 3.06 2.087 3.887 5.487 3.887 8.546 0 4.572-1.457 7.945-5.63 9.574-2.114.8-4.63.8-6.06.8h-8.773v-20.634zm5.86 16.662h2.456c3.804-.03 6.23-1.658 6.23-6.46 0-6.26-4.686-6.26-6.43-6.26l-2.257-.026v12.746zM74.112 130.022h15.49v3.943h-9.83v4.287h9.26v3.945h-9.26v4.4h10.06v4.002H74.11V130.02zM94.036 129.966h9.545c3.718 0 5.118.23 6.347 1.486.63.63 1.428 1.77 1.428 4 0 2.258-.914 3.23-1.885 3.83-1.316.83-2.572.973-3.145 1.06v.112c4.002.115 4.23 1.887 4.688 5.06.2 1.4.486 3.628.97 5.087h-6.2c-.344-1.257-.486-2.83-.686-4.657-.258-2.486-.344-3.402-2.916-3.402h-2.4v8.062h-5.743v-20.636zm5.744 8.86h2.145c1.256 0 1.885 0 2.37-.173 1.26-.4 1.517-1.686 1.517-2.344 0-2.544-2.23-2.544-3.887-2.544H99.78v5.06zM120.733 144.026c.03.83.086 3.2 3.486 3.2.485 0 3.058 0 3.058-2.343 0-.97-.4-1.63-1.77-2l-5.06-1.314c-1.43-.372-5.117-1.345-5.117-5.66 0-3.345 2.517-6.46 8.69-6.46 8.06 0 8.402 4.373 8.43 6.574h-5.8c0-.63.028-2.857-2.716-2.857-1.658 0-2.715.943-2.715 2.172 0 1.513 1.257 1.886 2.085 2.114l3.857 1c2.744.715 6.002 1.572 6.002 5.943 0 4.602-3.943 6.66-9.117 6.66-2.143 0-5.602-.344-7.486-2.46-1.515-1.655-1.544-3.685-1.57-4.57h5.743z"/></g></g></svg>